<svg xmlns="http://www.w3.org/2000/svg" viewBox="0 0 100 100" width="50" height="50">
  <defs>
    <linearGradient id="leafGradient" x1="0%" y1="0%" x2="100%" y2="100%">
      <stop offset="0%" style="stop-color:#22c55e;stop-opacity:1" />
      <stop offset="100%" style="stop-color:#16a34a;stop-opacity:1" />
    </linearGradient>
    <linearGradient id="stemGradient" x1="0%" y1="0%" x2="100%" y2="100%">
      <stop offset="0%" style="stop-color:#84cc16;stop-opacity:1" />
      <stop offset="100%" style="stop-color:#65a30d;stop-opacity:1" />
    </linearGradient>
  </defs>
  <path d="M50 95 C 40 75, 40 75, 20 60 C 10 40, 10 40, 30 20 C 40 10, 40 10, 50 5 C 60 10, 60 10, 70 20 C 90 40, 90 40, 80 60 C 60 75, 60 75, 50 95 Z" fill="url(#leafGradient)" stroke="#15803d" stroke-width="2"/>
  <path d="M50 90 Q 50 70 55 50 Q 60 30 70 20" fill="none" stroke="url(#stemGradient)" stroke-width="5" stroke-linecap="round"/>
  <path d="M50 90 Q 50 70 45 50 Q 40 30 30 20" fill="none" stroke="url(#stemGradient)" stroke-width="5" stroke-linecap="round"/> 
  <circle cx="50" cy="50" r="10" fill="#fde047" opacity="0.3"/>
</svg>
